<?xml version="1.0" encoding="UTF-8" standalone="no"?>
<!DOCTYPE svg PUBLIC "-//W3C//DTD SVG 1.1//EN" "http://www.w3.org/Graphics/SVG/1.1/DTD/svg11.dtd">
<svg version="1.1" xmlns="http://www.w3.org/2000/svg" xmlns:xlink="http://www.w3.org/1999/xlink" preserveAspectRatio="xMidYMid meet" viewBox="0 0 330 220" width="330" height="220"><defs><path d="M75.98 82.24C66.22 95.25 92.24 109.07 107.68 120.46C123.13 131.84 141.83 109.07 149.96 100.13C158.09 91.19 133.5 75.33 115 70.86C96.5 66.39 85.73 69.24 75.98 82.24Z" id="a32NxObST0"></path><radialGradient id="gradiente5bLu55VRE" gradientUnits="userSpaceOnUse" cx="112.7" cy="68.89" dx="112.7" dy="123.57" r="54.69"><stop style="stop-color: #ffffff;stop-opacity: 1" offset="0%"></stop><stop style="stop-color: #010000;stop-opacity: 1" offset="100%"></stop></radialGradient><path d="M107.68 90.37C83.83 84.95 60.26 87.66 36.95 98.5C13.64 109.34 12.56 148.91 33.7 217.2" id="e56dxKWhN"></path><path d="M328.01 73.68C312.29 95.9 281.67 112.71 236.14 124.09C190.61 135.47 159.17 130.05 141.83 107.83" id="f39U6TU6iM"></path><path d="M112.64 52.56L116.68 89.27" id="a3Xvgkdxg"></path><path d="M120.91 57.66L112.64 52.56L106.45 61.6" id="alLdjG6xl"></path><path d="M50.05 72.31L115.02 90.17" id="b1uClSQ9x6"></path><path d="M63.94 63.38L50.05 72.31L61.5 87.35" id="aSij6QWWl"></path><path d="M159.09 15.86L123.34 89.27" id="b2TjviJAqm"></path><path d="M164.87 35.38L159.09 15.86L140.26 25.23" id="b7olwbyLK"></path><path d="M137.64 154.5L118.94 92.64" id="b69dFWeakV"></path><path d="M123.18 148.76L137.64 154.5L144.11 136.61" id="ab2VGKNCV"></path></defs><g><g><g><use xlink:href="#a32NxObST0" opacity="1" fill="url(#gradiente5bLu55VRE)"></use><g><use xlink:href="#a32NxObST0" opacity="1" fill-opacity="0" stroke="#000000" stroke-width="2" stroke-opacity="1"></use></g></g><g><g><use xlink:href="#e56dxKWhN" opacity="1" fill-opacity="0" stroke="#000000" stroke-width="1" stroke-opacity="1"></use></g></g><g><g><use xlink:href="#f39U6TU6iM" opacity="1" fill-opacity="0" stroke="#000000" stroke-width="1" stroke-opacity="1"></use></g><g><use xlink:href="#f39U6TU6iM" opacity="1" fill-opacity="0" stroke="#000000" stroke-width="1" stroke-opacity="1"></use></g></g><g><g><g><use xlink:href="#a3Xvgkdxg" opacity="1" fill-opacity="0" stroke="#dd1212" stroke-width="4" stroke-opacity="1"></use></g></g><g><g><use xlink:href="#alLdjG6xl" opacity="1" fill-opacity="0" stroke="#dd1212" stroke-width="4" stroke-opacity="1"></use></g></g></g><g><g><g><use xlink:href="#b1uClSQ9x6" opacity="1" fill-opacity="0" stroke="#122cdd" stroke-width="4" stroke-opacity="1"></use></g></g><g><g><use xlink:href="#aSij6QWWl" opacity="1" fill-opacity="0" stroke="#122cdd" stroke-width="4" stroke-opacity="1"></use></g></g></g><g><g><g><use xlink:href="#b2TjviJAqm" opacity="1" fill-opacity="0" stroke="#ffc300" stroke-width="4" stroke-opacity="1"></use></g></g><g><g><use xlink:href="#b7olwbyLK" opacity="1" fill-opacity="0" stroke="#ffc300" stroke-width="4" stroke-opacity="1"></use></g></g></g><g><g><g><use xlink:href="#b69dFWeakV" opacity="1" fill-opacity="0" stroke="#23b638" stroke-width="4" stroke-opacity="1"></use></g></g><g><g><use xlink:href="#ab2VGKNCV" opacity="1" fill-opacity="0" stroke="#23b638" stroke-width="4" stroke-opacity="1"></use></g></g></g></g></g></svg>